<svg id="Layer_1" data-name="Layer 1" xmlns="http://www.w3.org/2000/svg" viewBox="0 0 142.58 244.55"><path d="M98,133.5c23.64,13.44,60.79,12.81,60.69-31.06l-15.33,22.72C136.51,129.92,108.51,132.66,98,133.5Z" transform="translate(-78.71 -27.72)" style="fill:#b1a9a2"/><path d="M170.13,78.22c-1.35,6.61-4,15-9.73,20.72-4.09,4.1-8.83,13.8-15,23.49a2.17,2.17,0,0,1-.56.57C97.47,154.23,60.33,89.55,92,219h16.45s16.75-23.94,16.63-34.59,2.63-35-5.32-40.9" transform="translate(-78.71 -27.72)" style="fill:none;stroke:#333;stroke-linecap:round;stroke-linejoin:round;stroke-width:3px"/><path d="M125.45,183.13S152.82,189.82,166,176" transform="translate(-78.71 -27.72)" style="fill:none;stroke:#333;stroke-miterlimit:10;stroke-width:3px"/><path d="M150.91,151c14.65,14.17,21.21,35.15,19.4,67.59l16.55.43s19.73-30.31,16-49.49-19.24-43.27-38.16-48" transform="translate(-78.71 -27.72)" style="fill:none;stroke:#333;stroke-linecap:round;stroke-miterlimit:10;stroke-width:3px"/><path d="M170.13,78.22C202.3,85,190.83,103.81,211,112.78c1.06,1.42-3.62,5.72-4,6.1.67.34,11.42,4.05,12.44,11.45,1.06,7.59.49,14.62-8.23,15.68s-12.25,1.06-15.7,2.77" transform="translate(-78.71 -27.72)" style="fill:none;stroke:#333;stroke-linecap:round;stroke-linejoin:round;stroke-width:3px"/><path d="M218.86,134.21s-12,.9-15.77,6.41" transform="translate(-78.71 -27.72)" style="fill:none;stroke:#333;stroke-linecap:round;stroke-miterlimit:10;stroke-width:3px"/><path d="M95.75,41.54c-.38-.26-.69-.46-.94-.6a4.68,4.68,0,0,0-2.53-.71,4,4,0,0,0-1.32.38,2.79,2.79,0,0,0-1.46,1.52,2.48,2.48,0,0,0,0,2c.56,1.21,1.8,1.72,3.71,1.54l6.65-.67a.38.38,0,0,0,.15,0h.23l1.17-4.83.79.18-1.08,4.52q4.35-.3,6,3.2a7.35,7.35,0,0,1-.41,6.8L104,60.16a18.39,18.39,0,0,0-6.3-.77L95.88,67c-.38,1.62-1,2.62-1.79,3A2.28,2.28,0,0,1,92,70a3.1,3.1,0,0,1-1.44-1.57q-.89-1.91.62-6.35.93-2.91,5-4.83a11.69,11.69,0,0,1,1.27-.48l1.1-4.56a22.26,22.26,0,0,1-6.73.23q-2.44-.44-3.89-3.54a12.37,12.37,0,0,1-1-3.18l.71-.33c.19.47.34.82.45,1.08l.18.44a4.45,4.45,0,0,0,3.82,2.79,20.47,20.47,0,0,0,3.08,0,35.68,35.68,0,0,0,4.06-.5l.34-1.38a36,36,0,0,1-7.21.65,4.35,4.35,0,0,1-3.74-2.79,4.56,4.56,0,0,1,.2-4.22,6.6,6.6,0,0,1,3.16-3,5.8,5.8,0,0,1,5.88.29l.52-1,.77.39-2.1,4.28C96.58,42.11,96.14,41.79,95.75,41.54ZM91.83,63.43a4.88,4.88,0,0,0-.51,4.65c.58,1.25,1.38,1.64,2.39,1.17a2.78,2.78,0,0,0,1.2-2l1.9-7.74a7.24,7.24,0,0,0-1.49.5A7.59,7.59,0,0,0,91.83,63.43Zm13.69-8.34c.3-.65.63-1.41,1-2.29a4,4,0,0,0-.32-2.88q-1.23-2.66-5.63-2.13l-.36,1.34a16.28,16.28,0,0,1,1.69-.17A7.85,7.85,0,0,1,103,49a2.56,2.56,0,0,1,2.07,1.59,3.38,3.38,0,0,1,.08,2.37c0,.15-.15.43-.3.83s-.33.89-.57,1.5l-.74-.32a3.24,3.24,0,0,0,.49-2.48c-.23-.49-.92-.71-2.07-.64-.41.06-.83.11-1.24.15s-.84.08-1.25.14l-1,4.43a13.67,13.67,0,0,1,6.31.21C105,56.3,105.22,55.74,105.52,55.09Z" transform="translate(-78.71 -27.72)" style="fill:#333"/><path d="M107.07,40l-.71-.45,2-3.26,2.45,1.08.49-.8.7.45-1.91,3.24-2.49-1.1Zm2.36,5.12-.75,1.26-.67-.46,2.18-3.67,2.46,1.12.78-1.19.69.41-1.2,2.08,1.82,5.63a2.66,2.66,0,0,0,1.48,1.92l.63-1.07.71.45-2.2,3.64a4.34,4.34,0,0,1-2.65-3.12l-2.11-6.52Z" transform="translate(-78.71 -27.72)" style="fill:#333"/><path d="M120,50.42,116.11,35a10.84,10.84,0,0,0-1-2.4l.7-.43c.24.48.45.9.62,1.28s.31.69.42.95a9.32,9.32,0,0,1,1.32-3.94l.66.31a5.94,5.94,0,0,0-.23,3.85l3.89,15.32,1,.56.87-1.33.7.45-2.47,3.58-2.44-1.37-.93,1.27-.72-.52Z" transform="translate(-78.71 -27.72)" style="fill:#333"/><path d="M127.05,48.71l-1.19-7.37a3.13,3.13,0,0,1-2.47-2.6,3.6,3.6,0,0,1,2.18-4.15l.37.74c-.93.61-1.35,1.25-1.24,1.93.2,1.23,1.28,1.68,3.25,1.36l1.57,9.72,1.69.89A13,13,0,0,1,133.4,48l-1.16-7.23-1.31-.91-.65.87-.67-.55,2.47-3.07,2.44,1.7,1-1.25.66.51-1.57,2,1.19,7.37a1.78,1.78,0,0,1,.31-.09l.11,0h.1a2,2,0,0,1,.39,0l.14.84c-.36,0-.64.07-.85.11l-.42.06a8,8,0,0,0-5.53,3.32l-3-1.5-.88,1-.63-.51Z" transform="translate(-78.71 -27.72)" style="fill:#333"/><path d="M140.33,47l-.43-7.56-.53.07h-.18l-.89,0-.05-.82a10,10,0,0,0,6.53-2.7l4,4.49L142.72,45l.11,2,1.7.91,3-2.32.51.68L143,50.05l-2.95-1.58-.81.87-.57-.65Zm3-8.57-.94.37.3,5.28,3.42-2.63Z" transform="translate(-78.71 -27.72)" style="fill:#333"/><path d="M151.06,46.56l.18-5.6a3.65,3.65,0,0,0-.67-2.48l-1.06.82-.51-.66,3.4-2.74a5.71,5.71,0,0,1,1.41,2.86L156,36c1,1.56,1.7,2.34,2,2.35.17,0,.34-.11.51-.34a3,3,0,0,0,.22-.28l.23-.27.66.52-1.19,1.53a2.31,2.31,0,0,1-1.63.8,3.19,3.19,0,0,1-2.1-1.35l-.93,1.18-.21,6.46,1.6,1.19,1.57-1,.48.7-3.75,2.41-2.72-2-1,.9-.51-.63Z" transform="translate(-78.71 -27.72)" style="fill:#333"/><path d="M161,47.09l2.13-15.81a11.89,11.89,0,0,0,0-2.8l.78-.12.11,2.39a8.9,8.9,0,0,1,2.63-3l.55.48a6,6,0,0,0-1.64,3.63l-1.07,8,4.23-2.56,2.33,2.15,1.26-.77.44.71-1.88,1.15-1,7.74.81.15-.11.81a13.27,13.27,0,0,0-3.88,0,11.66,11.66,0,0,0-3.61,1.39l-2.47-2.17-1.17.67-.39-.63Zm7.36-6.57-1.31-1.26-2.7,1.62-.83,6.22,1.67,1.49a8.63,8.63,0,0,1,2.15-.5Z" transform="translate(-78.71 -27.72)" style="fill:#333"/><path d="M175.06,52.6q-2.85-1.41-2.26-3.77a4.4,4.4,0,0,1,2.35-2.75l2.6-1.45c-1.34-2.35-1.94-3.84-1.77-4.49A1.35,1.35,0,0,1,177.84,39a1.48,1.48,0,0,1,.92.65,1.47,1.47,0,0,1-1.53,2.21l.12.25a7.94,7.94,0,0,0,5.42-2l1.42,2.38,1.4-.61.37.76-2.21,1-1.4,5.58a4.22,4.22,0,0,0,.05,2.58l1.17-.55.36.75L180,53.85a4.66,4.66,0,0,1-.52-3.48Zm6.23-9.32-.56-.84a9.93,9.93,0,0,1-2.92.51l1.71,3.27-.76.4-.65-1.23c-.28.17-.57.33-.85.48l-.86.48a2.66,2.66,0,0,0-1.24,1.46,1.75,1.75,0,0,0,0,.88,2.94,2.94,0,0,0,.39.89,2.76,2.76,0,0,0,.64.72,2.23,2.23,0,0,0,.8.4l2.78-1.4Z" transform="translate(-78.71 -27.72)" style="fill:#333"/><path d="M186.86,52.68l2.6-7.21-.51-.15-.13,0-.85-.38.28-.77q4.42,1.6,7.09.1c0,1.77.19,2.73.59,2.87s.93-.13,1.72-.78l.47.7c-1.74,1.45-3,2-3.91,1.7a1.88,1.88,0,0,1-1.06-1.18c-.05-.2-.18-.75-.38-1.66l-.79,0-2.62,7.25L190.69,55l3.57-.86.21.79-6.29,1.56-1.78-2.62-1.51.51-.28-.82Z" transform="translate(-78.71 -27.72)" style="fill:#333"/><path d="M196.58,56.24l6.95-14.43a15.22,15.22,0,0,0,.89-2.59l.73.12-.65,2.34a6.82,6.82,0,0,1,3.37-2.06l.24.64a5.88,5.88,0,0,0-2.44,2.86L202.37,50l4.31-.73,1.06,4.87-3.68.56a4.78,4.78,0,0,1,.59,3.22A6.35,6.35,0,0,0,204.9,61l1-.27.2.81-4,1a8.54,8.54,0,0,1,0-3.75A6.64,6.64,0,0,0,202,55l-2.22.35-.92,1.9.45,1.2,1-.28.2.81-3.73.93-1-2.64-1.54.41-.2-.81Zm7.82-5.81-2.48.46-1.7,3.54,4.89-.8Z" transform="translate(-78.71 -27.72)" style="fill:#333"/><path d="M85.54,255.07a5.25,5.25,0,0,1,.34-4.3A5.5,5.5,0,0,1,89.24,248a6.68,6.68,0,0,1,4.44.21l8.15-7.35a1.14,1.14,0,0,0-.56-.7c-.84-.45-1.52-.18-2,.78a2.82,2.82,0,0,0-.22.81l-.86,0a5.76,5.76,0,0,1,.58-2q1.45-2.75,3.85-1.48l.37.22.89.53,2.92-2.57a3.16,3.16,0,0,0-1.65-2.61,4.17,4.17,0,0,0-4,.35l-.38-.73c.71-.38,1.34-.69,1.89-.94a6.29,6.29,0,0,1,1.44-.49,4.87,4.87,0,0,1,3.55.38,4,4,0,0,1,1.71,1.8l.64-.52.54.65-.77.77a10.92,10.92,0,0,1-.33,2.93l-3.12,15.94c-.07.34-.12.62-.15.85a4.13,4.13,0,0,0,0,.5,2,2,0,0,0,.51,1.24l1.74-.53.2.83-4.75,1.45a4.79,4.79,0,0,1-.4-3.76l1-5-6.84-3.62-3.06,2.83a8.61,8.61,0,0,1,3.39,3.2l1.72-.51.2.84-4.72,1.46a6,6,0,0,0-2.87-3.5,4.47,4.47,0,0,0-3.08-.49,3.62,3.62,0,0,0-2.47,1.92,4.21,4.21,0,0,0-.21,3.6A5.29,5.29,0,0,0,89,257.86c.12.07.25.12.37.18l.36.12-.4.76c-.31-.13-.55-.25-.71-.33l-.29-.15A5.77,5.77,0,0,1,85.54,255.07Zm21.14-17.48-6.94,6.3,5.16,2.73Z" transform="translate(-78.71 -27.72)" style="fill:#333"/><path d="M108.93,265.55l2.35-7.27-1.48.65-.35-.79,2.18-.94,1.75-5.4a3.62,3.62,0,0,0,0-2.6l-1.14.5-.32-.74,3.9-1.74c.19.41.33.77.44,1.08a5.31,5.31,0,0,1,.2.74,3.93,3.93,0,0,1-.17,1.93l4.68-2.08,2,2.7,1.31-.55.35.76-2.18.94-2.32,7.2.31.06.1,0,.1,0a1.57,1.57,0,0,1,.3.13l-.25.78a9.19,9.19,0,0,0-1.53-.36,4.73,4.73,0,0,0-1.3,0,5,5,0,0,0-1.23.35,10.5,10.5,0,0,0-1.37.7l-.77-1c-.27-.36-.58-.75-.92-1.16l-1.86,5.77L107,267.31l-.32-.74Zm8.06-5.68a1.2,1.2,0,0,1,.54-.16l2.45-7.57-1-1.43-3,1.32-1.68,5.19.25,0,.1,0A3.42,3.42,0,0,1,117,259.87Z" transform="translate(-78.71 -27.72)" style="fill:#333"/><path d="M125.3,270.25l1.28-7.53-1.37.85-.46-.73,2-1.24,1-5.6a3.56,3.56,0,0,0-.39-2.56l-1,.65-.43-.69,3.61-2.28a9.14,9.14,0,0,1,.59,1,6.72,6.72,0,0,1,.31.71,3.88,3.88,0,0,1,.1,1.93l4.34-2.73,2.34,2.39,1.21-.73.46.69-2,1.25-1.28,7.46h.32l.11,0,.11,0a1.78,1.78,0,0,1,.31.09l-.14.81a8.43,8.43,0,0,0-1.57-.14,4.4,4.4,0,0,0-1.28.18,4.62,4.62,0,0,0-1.17.52,11.06,11.06,0,0,0-1.26.89l-.91-.92c-.32-.32-.67-.66-1.07-1l-1,6-4.34,2.74-.42-.69Zm7.16-6.78a1.25,1.25,0,0,1,.51-.23l1.34-7.85-1.23-1.26-2.79,1.73-.92,5.38h.25l.1,0A3.4,3.4,0,0,1,132.46,263.47Z" transform="translate(-78.71 -27.72)" style="fill:#333"/><path d="M142.18,263.64l.25-5.6a3.62,3.62,0,0,0-.64-2.49l-1.07.81-.5-.67,3.43-2.7a5.68,5.68,0,0,1,1.37,2.88l2.2-2.72c1,1.57,1.66,2.36,2,2.38a.71.71,0,0,0,.52-.34l.22-.27.23-.28.65.53-1.2,1.52a2.35,2.35,0,0,1-1.65.78,3.17,3.17,0,0,1-2.07-1.38l-.95,1.17-.29,6.46,1.59,1.21,1.58-1,.47.7L144.52,267,141.83,265l-1,.88-.51-.63Z" transform="translate(-78.71 -27.72)" style="fill:#333"/><path d="M154.38,264l-.59-7.58-.89.07-.07-.81a14.37,14.37,0,0,0,3.81-.73,8.18,8.18,0,0,0,3.26-2.19l2.67,1.65,1.05-1.09.59.6-1.62,1.7.6,7.72.86-.06.06.82a11.3,11.3,0,0,0-7,2.87l-2.82-1.67-.92,1-.62-.59Zm5.74-7.93-1.61-1a9.43,9.43,0,0,1-2.25,1l.57,7.29,2,1.21c.25-.14.54-.28.86-.43s.68-.28,1.07-.41Z" transform="translate(-78.71 -27.72)" style="fill:#333"/><path d="M169.83,262.12l-1.62-7.28a3.14,3.14,0,0,1-2.62-2.45,3.59,3.59,0,0,1,1.93-4.27l.41.71c-.89.66-1.27,1.33-1.12,2,.27,1.21,1.38,1.6,3.33,1.16l2.13,9.62,1.75.78a13.54,13.54,0,0,1,2.11-1.35l-1.59-7.14-1.35-.83-.61.9-.69-.5,2.28-3.22,2.53,1.56,1-1.31.69.47-1.44,2,1.62,7.28a1.71,1.71,0,0,1,.3-.1l.1,0,.11,0a2.51,2.51,0,0,1,.39-.05l.19.83c-.36.06-.64.11-.85.16l-.41.09A8.08,8.08,0,0,0,173,264.8l-3.1-1.31-.82,1.09-.65-.47Z" transform="translate(-78.71 -27.72)" style="fill:#333"/><path d="M184.66,258.4l-2.56-7.12a4.09,4.09,0,0,1-.49.22l-.16.06-.87.23-.27-.77a10,10,0,0,0,5.48-4.44l5.15,3.15-4.54,6.11.67,1.88,1.88.39,2.26-3.09.68.51-3.79,5-3.28-.68L184.3,261l-.73-.46Zm.42-9.06-.8.63,1.79,5,2.53-3.5Z" transform="translate(-78.71 -27.72)" style="fill:#333"/><path d="M196.49,253.92,193,247l-.87.4-.38-.73q.56-.24.84-.39l.35-.18a9.86,9.86,0,0,0,3.36-2.84l-7.82-3,1.43-3.7.78.28-.53,1.4,10.11,3.88.53-1.39.74.34-.69,1.87,3.51,6.87.85-.44.38.73a11.19,11.19,0,0,0-5.45,5.39l-3.24-.3-.42,1.14-.78-.28Zm2.1-9.85-1.41-.4a13.83,13.83,0,0,1-2.07,2.06l3.42,6.7,2.19.21,1.47-1.52Z" transform="translate(-78.71 -27.72)" style="fill:#333"/></svg>